<svg width="198" height="41" viewBox="0 0 198 41" fill="none" xmlns="http://www.w3.org/2000/svg">
<path d="M14.9306 14.4873C11.9386 14.4873 9.4906 15.53 7.5866 17.6153C5.72793 19.6553 4.7986 22.1033 4.7986 24.9593C4.7986 27.8153 5.77326 30.2407 7.7226 32.2353C9.71726 34.23 12.1426 35.2273 14.9986 35.2273C17.5373 35.2273 19.8266 34.298 21.8666 32.4393C22.5919 31.8047 23.1359 31.4873 23.4986 31.4873C23.8613 31.4873 24.1786 31.6233 24.4506 31.8953C24.7226 32.1673 24.8586 32.462 24.8586 32.7793C24.8586 34.094 23.5666 35.726 20.9826 37.6753C18.4439 39.6247 15.5426 40.5993 12.2786 40.5993C9.05993 40.5993 6.24926 39.2847 3.8466 36.6553C1.48926 34.026 0.310596 30.762 0.310596 26.8633C0.310596 21.8767 2.19193 17.6833 5.9546 14.2833C9.71726 10.8833 13.8653 9.18334 18.3986 9.18334C20.3026 9.18334 21.8439 9.52334 23.0226 10.2033C24.2466 10.838 24.8586 11.6767 24.8586 12.7193C24.8586 13.7167 24.5413 14.5327 23.9066 15.1673C23.3173 15.802 22.7279 16.1193 22.1386 16.1193C21.5493 16.1193 20.5293 15.8473 19.0786 15.3033C17.6733 14.7593 16.2906 14.4873 14.9306 14.4873ZM34.7515 17.5473C32.7569 19.542 31.7595 21.99 31.7595 24.8913C31.7595 27.7927 32.7569 30.2633 34.7515 32.3033C36.7915 34.298 39.2395 35.2953 42.0955 35.2953C44.9969 35.2953 47.4222 34.298 49.3715 32.3033C51.3209 30.2633 52.2955 27.7927 52.2955 24.8913C52.2955 21.99 51.3209 19.542 49.3715 17.5473C47.4222 15.5527 44.9969 14.5553 42.0955 14.5553C39.2395 14.5553 36.7915 15.5527 34.7515 17.5473ZM37.4715 40.5993C34.5702 40.5993 32.1449 39.466 30.1955 37.1993C28.2462 34.9327 27.2715 32.0993 27.2715 28.6993C27.2715 25.254 28.3369 21.9447 30.4675 18.7713C32.5982 15.5527 35.0915 13.15 37.9475 11.5633C40.8035 9.97668 43.6822 9.18334 46.5835 9.18334C49.4849 9.18334 51.9102 10.3167 53.8595 12.5833C55.8089 14.85 56.7835 17.706 56.7835 21.1513C56.7835 24.5513 55.7182 27.8607 53.5875 31.0793C51.4569 34.2527 48.9635 36.6327 46.1075 38.2193C43.2515 39.806 40.3729 40.5993 37.4715 40.5993ZM68.233 20.7433L68.641 37.3353C68.641 38.2873 68.369 39.0807 67.825 39.7153C67.281 40.3047 66.5784 40.5993 65.717 40.5993C64.8557 40.5993 64.1077 40.3047 63.473 39.7153C62.8837 39.0807 62.589 38.2873 62.589 37.3353L63.065 23.8713C63.065 23.8713 62.9064 20.086 62.589 12.5153C62.589 11.5633 62.8837 10.77 63.473 10.1353C64.1077 9.50068 64.8557 9.18334 65.717 9.18334C66.5784 9.18334 67.281 9.50068 67.825 10.1353C68.369 10.7247 68.641 11.4727 68.641 12.3793C68.641 13.286 68.6184 13.966 68.573 14.4193C71.1117 10.9287 74.0357 9.18334 77.345 9.18334C82.105 9.18334 85.165 12.3793 86.525 18.7713L89.109 30.4673C89.381 31.51 89.925 32.6433 90.741 33.8673C91.6024 35.046 92.033 36.1113 92.033 37.0633C92.033 39.4207 90.8997 40.5993 88.633 40.5993C86.3664 40.5993 84.893 38.8087 84.213 35.2273L81.629 21.0153C80.7677 16.482 78.433 14.2153 74.625 14.2153C72.6757 14.2153 71.157 14.8727 70.069 16.1873C68.981 17.502 68.369 19.0207 68.233 20.7433ZM113.339 14.2153C113.112 14.2153 110.279 14.034 104.839 13.6713C104.839 14.2607 104.748 16.5047 104.567 20.4033C104.385 24.302 104.295 27.2033 104.295 29.1073C104.295 30.966 104.703 32.53 105.519 33.7993C106.38 35.0233 106.811 36.134 106.811 37.1313C106.811 38.1287 106.471 38.9673 105.791 39.6473C105.111 40.282 104.34 40.5993 103.479 40.5993C101.212 40.5993 100.079 38.8087 100.079 35.2273L99.8068 21.4233C99.8068 18.6127 99.7388 16.0967 99.6028 13.8753H97.9708C97.3361 13.8753 96.8148 13.694 96.4068 13.3313C95.9988 12.9233 95.7948 12.3793 95.7948 11.6993C95.7948 11.0193 95.9988 10.498 96.4068 10.1353C96.8148 9.72734 97.3361 9.52334 97.9708 9.52334H99.3988C99.3081 7.16601 99.2628 5.37534 99.2628 4.15134C99.2628 2.88201 99.5575 1.88468 100.147 1.15935C100.781 0.388678 101.529 0.00334382 102.391 0.00334382C103.252 0.00334382 103.955 0.36601 104.499 1.09134C105.043 1.77134 105.315 2.90468 105.315 4.49134C105.315 6.07801 105.247 7.82334 105.111 9.72734L113.339 9.18334C115.107 9.18334 115.991 10.022 115.991 11.6993C115.991 13.3767 115.107 14.2153 113.339 14.2153ZM143.321 31.0793C143.638 31.8953 144.296 33.006 145.293 34.4113C146.336 35.7713 146.857 36.882 146.857 37.7433C146.857 38.6047 146.63 39.3073 146.177 39.8513C145.724 40.35 145.112 40.5993 144.341 40.5993C142.482 40.5993 140.828 38.6727 139.377 34.8193L138.833 33.3233C136.521 38.174 133.053 40.5993 128.429 40.5993C126.117 40.5993 124.19 39.874 122.649 38.4233C121.153 36.9273 120.405 35.0687 120.405 32.8473C120.405 29.402 121.584 26.4327 123.941 23.9393C126.298 21.446 129.381 20.1087 133.189 19.9273C132.282 18.3407 131.262 17.162 130.129 16.3913C129.041 15.5753 128.044 15.0993 127.137 14.9633C126.23 14.8273 125.369 14.7593 124.553 14.7593C123.782 14.714 123.17 14.5327 122.717 14.2153C122.264 13.898 122.037 13.286 122.037 12.3793C122.037 11.4273 122.4 10.6567 123.125 10.0673C123.896 9.47801 124.802 9.18334 125.845 9.18334C128.792 9.18334 131.693 10.6567 134.549 13.6033C137.405 16.55 139.898 21.174 142.029 27.4753L143.321 31.0793ZM131.489 23.5313C129.857 23.5313 128.384 24.0753 127.069 25.1633C125.8 26.2513 125.165 27.6567 125.165 29.3793C125.165 31.102 125.732 32.5527 126.865 33.7313C128.044 34.8647 129.449 35.4313 131.081 35.4313C132.713 35.4313 134.118 34.8647 135.297 33.7313C136.476 32.5527 137.065 31.17 137.065 29.5833C137.065 28.45 136.861 27.4073 136.453 26.4553C136.045 25.458 135.796 24.846 135.705 24.6193C134.526 23.894 133.121 23.5313 131.489 23.5313ZM164.876 14.4873C161.884 14.4873 159.436 15.53 157.532 17.6153C155.673 19.6553 154.744 22.1033 154.744 24.9593C154.744 27.8153 155.719 30.2407 157.668 32.2353C159.663 34.23 162.088 35.2273 164.944 35.2273C167.483 35.2273 169.772 34.298 171.812 32.4393C172.537 31.8047 173.081 31.4873 173.444 31.4873C173.807 31.4873 174.124 31.6233 174.396 31.8953C174.668 32.1673 174.804 32.462 174.804 32.7793C174.804 34.094 173.512 35.726 170.928 37.6753C168.389 39.6247 165.488 40.5993 162.224 40.5993C159.005 40.5993 156.195 39.2847 153.792 36.6553C151.435 34.026 150.256 30.762 150.256 26.8633C150.256 21.8767 152.137 17.6833 155.9 14.2833C159.663 10.8833 163.811 9.18334 168.344 9.18334C170.248 9.18334 171.789 9.52334 172.968 10.2033C174.192 10.838 174.804 11.6767 174.804 12.7193C174.804 13.7167 174.487 14.5327 173.852 15.1673C173.263 15.802 172.673 16.1193 172.084 16.1193C171.495 16.1193 170.475 15.8473 169.024 15.3033C167.619 14.7593 166.236 14.4873 164.876 14.4873ZM194.421 14.2153C194.194 14.2153 191.361 14.034 185.921 13.6713C185.921 14.2607 185.83 16.5047 185.649 20.4033C185.468 24.302 185.377 27.2033 185.377 29.1073C185.377 30.966 185.785 32.53 186.601 33.7993C187.462 35.0233 187.893 36.134 187.893 37.1313C187.893 38.1287 187.553 38.9673 186.873 39.6473C186.193 40.282 185.422 40.5993 184.561 40.5993C182.294 40.5993 181.161 38.8087 181.161 35.2273L180.889 21.4233C180.889 18.6127 180.821 16.0967 180.685 13.8753H179.053C178.418 13.8753 177.897 13.694 177.489 13.3313C177.081 12.9233 176.877 12.3793 176.877 11.6993C176.877 11.0193 177.081 10.498 177.489 10.1353C177.897 9.72734 178.418 9.52334 179.053 9.52334H180.481C180.39 7.16601 180.345 5.37534 180.345 4.15134C180.345 2.88201 180.64 1.88468 181.229 1.15935C181.864 0.388678 182.612 0.00334382 183.473 0.00334382C184.334 0.00334382 185.037 0.36601 185.581 1.09134C186.125 1.77134 186.397 2.90468 186.397 4.49134C186.397 6.07801 186.329 7.82334 186.193 9.72734L194.421 9.18334C196.189 9.18334 197.073 10.022 197.073 11.6993C197.073 13.3767 196.189 14.2153 194.421 14.2153Z" fill="white"/>
<path d="M7.5866 17.6153L6.84811 16.9411L6.8474 16.9419L7.5866 17.6153ZM7.7226 32.2353L7.00736 32.9343L7.01549 32.9425L7.7226 32.2353ZM21.8666 32.4393L21.2081 31.6868L21.2005 31.6934L21.1931 31.7001L21.8666 32.4393ZM24.4506 31.8953L25.1577 31.1882L25.1577 31.1882L24.4506 31.8953ZM20.9826 37.6753L20.3803 36.877L20.3736 36.8822L20.9826 37.6753ZM3.8466 36.6553L3.10199 37.3229L3.10839 37.3299L3.8466 36.6553ZM5.9546 14.2833L6.62504 15.0253L6.62504 15.0253L5.9546 14.2833ZM23.0226 10.2033L22.5229 11.0695L22.5423 11.0808L22.5623 11.0911L23.0226 10.2033ZM23.9066 15.1673L23.1995 14.4602L23.1864 14.4733L23.1738 14.4869L23.9066 15.1673ZM19.0786 15.3033L18.7176 16.236L18.7275 16.2397L19.0786 15.3033ZM14.9306 13.4873C11.6765 13.4873 8.95393 14.6347 6.84811 16.9411L8.32508 18.2896C10.0273 16.4253 12.2007 15.4873 14.9306 15.4873V13.4873ZM6.8474 16.9419C4.8146 19.173 3.7986 21.8638 3.7986 24.9593H5.7986C5.7986 22.3429 6.64126 20.1377 8.32579 18.2888L6.8474 16.9419ZM3.7986 24.9593C3.7986 28.0696 4.87065 30.7478 7.00741 32.9343L8.43778 31.5364C6.67587 29.7335 5.7986 27.5611 5.7986 24.9593H3.7986ZM7.01549 32.9425C9.2003 35.1273 11.8811 36.2273 14.9986 36.2273V34.2273C12.4041 34.2273 10.2342 33.3328 8.4297 31.5282L7.01549 32.9425ZM14.9986 36.2273C17.809 36.2273 20.3334 35.1891 22.5401 33.1785L21.1931 31.7001C19.3198 33.4069 17.2655 34.2273 14.9986 34.2273V36.2273ZM22.5251 33.1919C22.8622 32.897 23.1262 32.7036 23.3225 32.5891C23.5398 32.4624 23.5811 32.4873 23.4986 32.4873V30.4873C23.0534 30.4873 22.6414 30.671 22.3147 30.8616C21.967 31.0644 21.5963 31.3471 21.2081 31.6868L22.5251 33.1919ZM23.4986 32.4873C23.5787 32.4873 23.6464 32.5054 23.7435 32.6025L25.1577 31.1882C24.7108 30.7413 24.1438 30.4873 23.4986 30.4873V32.4873ZM23.7435 32.6025C23.8112 32.6701 23.8383 32.717 23.8486 32.7394C23.8574 32.7584 23.8586 32.7687 23.8586 32.7793H25.8586C25.8586 32.1423 25.5748 31.6053 25.1577 31.1882L23.7435 32.6025ZM23.8586 32.7793C23.8586 33.1133 23.6881 33.6328 23.1056 34.3686C22.533 35.0918 21.6375 35.9286 20.3804 36.877L21.5848 38.4737C22.9116 37.4727 23.9541 36.5189 24.6736 35.61C25.3831 34.7138 25.8586 33.7601 25.8586 32.7793H23.8586ZM20.3736 36.8822C18.0133 38.6946 15.3271 39.5993 12.2786 39.5993V41.5993C15.7581 41.5993 18.8746 40.5548 21.5916 38.4685L20.3736 36.8822ZM12.2786 39.5993C9.37245 39.5993 6.82049 38.4274 4.58481 35.9808L3.10839 37.3299C5.67803 40.142 8.7474 41.5993 12.2786 41.5993V39.5993ZM4.59117 35.9878C2.41588 33.5615 1.3106 30.5433 1.3106 26.8633H-0.689404C-0.689404 30.9807 0.562642 34.4905 3.10203 37.3229L4.59117 35.9878ZM1.3106 26.8633C1.3106 22.1649 3.06813 18.2394 6.62504 15.0253L5.28415 13.5414C1.31572 17.1273 -0.689404 21.5885 -0.689404 26.8633H1.3106ZM6.62504 15.0253C10.2274 11.7702 14.1429 10.1833 18.3986 10.1833V8.18334C13.5876 8.18334 9.20714 9.99652 5.28415 13.5414L6.62504 15.0253ZM18.3986 10.1833C20.1937 10.1833 21.545 10.5053 22.5229 11.0695L23.5223 9.33716C22.1429 8.54134 20.4115 8.18334 18.3986 8.18334V10.1833ZM22.5623 11.0911C23.5793 11.6184 23.8586 12.1723 23.8586 12.7193H25.8586C25.8586 11.1811 24.9139 10.0576 23.4829 9.31559L22.5623 11.0911ZM23.8586 12.7193C23.8586 13.4838 23.625 14.0348 23.1995 14.4602L24.6137 15.8744C25.4576 15.0306 25.8586 13.9496 25.8586 12.7193H23.8586ZM23.1738 14.4869C22.6841 15.0142 22.3411 15.1193 22.1386 15.1193V17.1193C23.1148 17.1193 23.9504 16.5898 24.6394 15.8478L23.1738 14.4869ZM22.1386 15.1193C21.7545 15.1193 20.8941 14.9162 19.4297 14.367L18.7275 16.2397C20.1644 16.7785 21.344 17.1193 22.1386 17.1193V15.1193ZM19.4396 14.3708C17.9315 13.787 16.4267 13.4873 14.9306 13.4873V15.4873C16.1545 15.4873 17.415 15.7317 18.7176 16.2359L19.4396 14.3708ZM34.7515 17.5473L34.0524 16.8323L34.0444 16.8402L34.7515 17.5473ZM34.7515 32.3033L34.0365 33.0025L34.0444 33.0105L34.0524 33.0184L34.7515 32.3033ZM49.3715 32.3033L50.0868 33.0023L50.0945 32.9942L49.3715 32.3033ZM49.3715 17.5473L50.0867 16.8484L50.0867 16.8484L49.3715 17.5473ZM30.1955 37.1993L30.9537 36.5473L30.1955 37.1993ZM30.4675 18.7713L31.2978 19.3288L31.3014 19.3233L30.4675 18.7713ZM37.9475 11.5633L37.4619 10.6892L37.4619 10.6892L37.9475 11.5633ZM53.8595 12.5833L53.1013 13.2354L53.1013 13.2354L53.8595 12.5833ZM53.5875 31.0793L54.4178 31.6368L54.4214 31.6313L53.5875 31.0793ZM46.1075 38.2193L46.5932 39.0935L46.5932 39.0935L46.1075 38.2193ZM34.0444 16.8402C31.8563 19.0283 30.7595 21.7333 30.7595 24.8913H32.7595C32.7595 22.2468 33.6574 20.0557 35.4586 18.2545L34.0444 16.8402ZM30.7595 24.8913C30.7595 28.0491 31.8557 30.7721 34.0365 33.0025L35.4665 31.6042C33.658 29.7546 32.7595 27.5363 32.7595 24.8913H30.7595ZM34.0524 33.0184C36.2795 35.1959 38.9785 36.2953 42.0955 36.2953V34.2953C39.5006 34.2953 37.3036 33.4001 35.4507 31.5883L34.0524 33.0184ZM42.0955 36.2953C45.2539 36.2953 47.9409 35.198 50.0867 33.0023L48.6563 31.6044C46.9035 33.398 44.7398 34.2953 42.0955 34.2953V36.2953ZM50.0945 32.9942C52.2272 30.7624 53.2955 28.0419 53.2955 24.8913H51.2955C51.2955 27.5434 50.4146 29.7643 48.6485 31.6125L50.0945 32.9942ZM53.2955 24.8913C53.2955 21.7405 52.2267 19.0381 50.0867 16.8484L48.6563 18.2463C50.4151 20.0459 51.2955 22.2396 51.2955 24.8913H53.2955ZM50.0867 16.8484C47.9409 14.6527 45.2539 13.5553 42.0955 13.5553V15.5553C44.7398 15.5553 46.9035 16.4527 48.6563 18.2463L50.0867 16.8484ZM42.0955 13.5553C38.9785 13.5553 36.2795 14.6548 34.0524 16.8323L35.4507 18.2624C37.3036 16.4506 39.5006 15.5553 42.0955 15.5553V13.5553ZM37.4715 39.5993C34.8716 39.5993 32.7197 38.6008 30.9537 36.5473L29.4373 37.8514C31.57 40.3312 34.2688 41.5993 37.4715 41.5993V39.5993ZM30.9537 36.5473C29.1818 34.4869 28.2715 31.895 28.2715 28.6993H26.2715C26.2715 32.3037 27.3106 35.3784 29.4373 37.8514L30.9537 36.5473ZM28.2715 28.6993C28.2715 25.474 29.2652 22.356 31.2978 19.3288L29.6373 18.2139C27.4086 21.5333 26.2715 25.034 26.2715 28.6993H28.2715ZM31.3014 19.3233C33.3595 16.2142 35.7408 13.9333 38.4332 12.4375L37.4619 10.6892C34.4423 12.3667 31.8369 14.8911 29.6337 18.2194L31.3014 19.3233ZM38.4332 12.4375C41.1597 10.9228 43.8727 10.1833 46.5835 10.1833V8.18334C43.4917 8.18334 40.4474 9.03057 37.4619 10.6892L38.4332 12.4375ZM46.5835 10.1833C49.1835 10.1833 51.3354 11.1819 53.1013 13.2354L54.6177 11.9313C52.485 9.45145 49.7862 8.18334 46.5835 8.18334V10.1833ZM53.1013 13.2354C54.8712 15.2933 55.7835 17.9066 55.7835 21.1513H57.7835C57.7835 17.5054 56.7466 14.4067 54.6177 11.9313L53.1013 13.2354ZM55.7835 21.1513C55.7835 24.3293 54.7911 27.4495 52.7537 30.5274L54.4214 31.6313C56.6453 28.2718 57.7835 24.7734 57.7835 21.1513H55.7835ZM52.7573 30.5219C50.6999 33.5862 48.3179 35.8474 45.6219 37.3452L46.5932 39.0935C49.6092 37.4179 52.2139 34.9192 54.4178 31.6368L52.7573 30.5219ZM45.6219 37.3452C42.8954 38.8599 40.1824 39.5993 37.4715 39.5993V41.5993C40.5633 41.5993 43.6077 40.7521 46.5932 39.0935L45.6219 37.3452ZM68.233 20.7433L67.2361 20.6646L67.2321 20.7162L67.2333 20.7679L68.233 20.7433ZM68.641 37.3353H69.641V37.3231L69.6407 37.3108L68.641 37.3353ZM67.825 39.7153L68.5598 40.3936L68.5723 40.3801L68.5843 40.3661L67.825 39.7153ZM63.473 39.7153L62.7402 40.3958L62.7654 40.4229L62.7926 40.4481L63.473 39.7153ZM62.589 37.3353L61.5897 37.3L61.589 37.3177V37.3353H62.589ZM63.065 23.8713L64.0644 23.9067L64.0658 23.8681L64.0642 23.8295L63.065 23.8713ZM62.589 12.5153H61.589V12.5363L61.5899 12.5572L62.589 12.5153ZM63.473 10.1353L62.7659 9.42824L62.7528 9.44133L62.7402 9.45489L63.473 10.1353ZM67.825 10.1353L67.0658 10.7861L67.0778 10.8001L67.0902 10.8136L67.825 10.1353ZM68.573 14.4193L67.578 14.3198L67.2107 17.9927L69.3818 15.0075L68.573 14.4193ZM86.525 18.7713L85.5469 18.9795L85.5486 18.9871L86.525 18.7713ZM89.109 30.4673L88.1326 30.6831L88.1367 30.7015L88.1414 30.7198L89.109 30.4673ZM90.741 33.8673L89.909 34.422L89.9209 34.44L89.9336 34.4574L90.741 33.8673ZM84.213 35.2273L83.2291 35.4062L83.2306 35.4139L84.213 35.2273ZM81.629 21.0153L82.6129 20.8365L82.6115 20.8287L81.629 21.0153ZM70.069 16.1873L69.2986 15.5498L69.2986 15.5498L70.069 16.1873ZM67.2333 20.7679L67.6413 37.3599L69.6407 37.3108L69.2327 20.7188L67.2333 20.7679ZM67.641 37.3353C67.641 38.0839 67.4329 38.6362 67.0658 39.0646L68.5843 40.3661C69.3051 39.5251 69.641 38.4908 69.641 37.3353H67.641ZM67.0902 39.0371C66.7507 39.4049 66.3224 39.5993 65.717 39.5993V41.5993C66.8343 41.5993 67.8114 41.2044 68.5598 40.3936L67.0902 39.0371ZM65.717 39.5993C65.1097 39.5993 64.6043 39.4012 64.1535 38.9826L62.7926 40.4481C63.6111 41.2082 64.6017 41.5993 65.717 41.5993V39.5993ZM64.2058 39.0349C63.8059 38.6042 63.589 38.0621 63.589 37.3353H61.589C61.589 38.5126 61.9615 39.5572 62.7402 40.3958L64.2058 39.0349ZM63.5884 37.3707L64.0644 23.9067L62.0657 23.836L61.5897 37.3L63.5884 37.3707ZM63.065 23.8713C64.0642 23.8295 64.0642 23.8295 64.0642 23.8294C64.0642 23.8294 64.0642 23.8293 64.0641 23.8293C64.0641 23.8292 64.0641 23.8292 64.0641 23.8291C64.0641 23.829 64.0641 23.8289 64.0641 23.8288C64.0641 23.8287 64.0641 23.8281 64.0641 23.8279C64.0641 23.8277 64.0641 23.8275 64.0641 23.8273C64.0641 23.8271 64.064 23.8269 64.064 23.8267C64.064 23.8262 64.0639 23.8242 64.0639 23.8232C64.0639 23.8229 64.0639 23.8225 64.0638 23.8221C64.0638 23.8218 64.0638 23.8214 64.0638 23.821C64.0638 23.8206 64.0638 23.8202 64.0637 23.8197C64.0637 23.8193 64.0637 23.8188 64.0637 23.8184C64.0637 23.8179 64.0626 23.793 64.0623 23.7851C64.0614 23.7636 64.0612 23.7586 64.06 23.7297C64.0575 23.67 64.0595 23.7191 64.0567 23.652C64.0555 23.622 64.0561 23.6368 64.0547 23.6049C64.0531 23.565 64.0543 23.5939 64.0525 23.5522C64.0521 23.5412 64.0482 23.4486 64.0474 23.4302C64.0458 23.3914 64.0462 23.4016 64.0445 23.3609C64.0436 23.3398 64.0439 23.3457 64.043 23.3242C64.0429 23.3215 64.0415 23.2892 64.0414 23.2861C64.0395 23.2412 64.04 23.2524 64.038 23.2057C64.0353 23.1405 64.0372 23.1868 64.0344 23.1197C64.0331 23.0897 64.0338 23.1052 64.0325 23.0747C64.0314 23.0487 64.0317 23.0547 64.0306 23.0282C64.0298 23.0099 64.0274 22.9514 64.0265 22.9312C64.0228 22.8434 64.026 22.9183 64.0222 22.8286C64.0211 22.803 64.0211 22.8013 64.02 22.7752C64.0182 22.734 64.0194 22.7622 64.0177 22.7205C64.0172 22.7095 64.0134 22.6197 64.0129 22.6068C64.0125 22.5965 64.0109 22.5587 64.0104 22.5479C64.0104 22.5474 64.0092 22.5185 64.0092 22.5179C64.0091 22.5156 64.008 22.49 64.0079 22.4876C64.0074 22.4755 64.0059 22.4385 64.0053 22.4259C64.0051 22.4205 64.0042 22.4 64.004 22.3945C64.0038 22.3893 64.0036 22.384 64.0033 22.3787C64.0031 22.3734 64.0029 22.3681 64.0027 22.3628C64.0022 22.3502 63.9978 22.247 63.9972 22.2325C63.9956 22.1947 63.996 22.2036 63.9944 22.1653C63.9942 22.1596 63.9939 22.154 63.9937 22.1483C63.9934 22.1426 63.9932 22.1369 63.993 22.1312C63.9923 22.1153 63.9922 22.1127 63.9915 22.0967C63.9912 22.0896 63.9889 22.0342 63.9886 22.0267C63.9869 21.9865 63.9873 21.9959 63.9856 21.9553C63.9856 21.9548 63.9795 21.8107 63.9794 21.8083C63.9773 21.7585 63.9784 21.7831 63.9763 21.7328C63.9755 21.7142 63.9755 21.7133 63.9747 21.6945C63.9745 21.6914 63.9732 21.659 63.973 21.6559C63.9712 21.611 63.9717 21.6229 63.9698 21.5775C63.9676 21.5249 63.9686 21.5509 63.9664 21.4978C63.9664 21.4973 63.9597 21.3366 63.9596 21.3343C63.9549 21.2221 63.9573 21.2792 63.9525 21.1651C63.9507 21.1237 63.9506 21.1204 63.9488 21.0785C63.9461 21.0119 63.948 21.0575 63.9452 20.9905C63.9439 20.9604 63.9446 20.9761 63.9433 20.9459C63.9424 20.9251 63.9423 20.922 63.9414 20.9011C63.9403 20.8749 63.9387 20.8369 63.9376 20.8103C63.9347 20.7406 63.9367 20.7882 63.9337 20.7181C63.9324 20.6866 63.9331 20.703 63.9318 20.6715C63.9307 20.6451 63.9309 20.6509 63.9298 20.6245C63.929 20.6061 63.9266 20.5484 63.9258 20.5295C63.9228 20.4567 63.9249 20.5065 63.9218 20.4332C63.9206 20.405 63.9209 20.4128 63.9198 20.3845C63.9186 20.357 63.9189 20.3631 63.9177 20.3355C63.9169 20.3163 63.9144 20.256 63.9135 20.2364C63.9104 20.1604 63.9125 20.2123 63.9093 20.1359C63.9081 20.1064 63.9084 20.1146 63.9072 20.0851C63.9058 20.0515 63.9065 20.0676 63.9051 20.034C63.9042 20.014 63.9016 19.9511 63.9007 19.9307C63.8993 19.8965 63.9 19.9129 63.8985 19.8785C63.8983 19.8736 63.8966 19.8311 63.8963 19.826C63.8953 19.8005 63.8952 19.7989 63.8941 19.7732C63.8927 19.7383 63.8934 19.755 63.8919 19.72C63.891 19.6992 63.8883 19.6338 63.8874 19.6126C63.8872 19.608 63.8853 19.563 63.8851 19.5583C63.8849 19.5531 63.8831 19.509 63.8828 19.5037C63.8822 19.4876 63.8812 19.465 63.8805 19.4488C63.8788 19.4072 63.88 19.4352 63.8782 19.3935C63.8778 19.3825 63.874 19.2934 63.8735 19.2819C63.8731 19.2718 63.8716 19.2359 63.8712 19.2256C63.8708 19.2162 63.8704 19.2068 63.87 19.1973C63.8696 19.1879 63.8692 19.1784 63.8688 19.169C63.8683 19.1577 63.8669 19.1233 63.8664 19.1119C63.866 19.1016 63.8644 19.065 63.864 19.0546C63.8635 19.0432 63.8597 18.9507 63.8592 18.9388C63.8587 18.9283 63.8572 18.8911 63.8567 18.8804C63.8563 18.8707 63.8559 18.8609 63.8555 18.8511C63.8551 18.8413 63.8547 18.8315 63.8543 18.8217C63.8538 18.81 63.8523 18.7744 63.8518 18.7626C63.8513 18.7519 63.8497 18.714 63.8493 18.7032C63.8488 18.6914 63.8448 18.5956 63.8443 18.5833C63.8436 18.5666 63.8424 18.5396 63.8417 18.5228C63.8413 18.5127 63.8409 18.5026 63.8404 18.4924C63.84 18.4823 63.8396 18.4721 63.8392 18.462C63.8387 18.4499 63.8371 18.413 63.8366 18.4008C63.8359 18.3838 63.8347 18.3564 63.834 18.3393C63.8335 18.3271 63.8294 18.2279 63.8288 18.2152C63.8276 18.186 63.8274 18.1821 63.8262 18.1527C63.826 18.1467 63.8238 18.0959 63.8236 18.0898C63.8233 18.0833 63.8212 18.0331 63.8209 18.0265C63.8197 17.9968 63.8195 17.9928 63.8183 17.9629C63.8177 17.9503 63.8134 17.8478 63.8129 17.8347C63.8116 17.8045 63.8114 17.8004 63.8102 17.7701C63.8099 17.7639 63.8077 17.7114 63.8074 17.7051C63.8072 17.6984 63.805 17.6466 63.8047 17.6398C63.8034 17.609 63.8032 17.6049 63.802 17.5741C63.8014 17.561 63.797 17.4552 63.7964 17.4417C63.7951 17.4105 63.7949 17.4063 63.7936 17.375C63.7933 17.3686 63.7911 17.3144 63.7908 17.3079C63.7905 17.301 63.7883 17.2476 63.788 17.2405C63.7864 17.2023 63.7867 17.2111 63.7851 17.1728C63.7851 17.1723 63.7794 17.0372 63.7794 17.0362C63.7778 16.9975 63.7782 17.0064 63.7765 16.9675C63.776 16.956 63.7756 16.9444 63.7751 16.9329C63.7746 16.9214 63.7741 16.9099 63.7736 16.8983C63.7733 16.8912 63.771 16.8361 63.7707 16.8288C63.7691 16.7895 63.7694 16.7985 63.7678 16.759C63.7678 16.7585 63.7619 16.6192 63.7619 16.6183C63.7585 16.5377 63.7593 16.5572 63.7559 16.4762C63.7559 16.4757 63.753 16.4052 63.7529 16.4046C63.7512 16.3641 63.7516 16.3734 63.7499 16.3327C63.7499 16.3322 63.7439 16.1888 63.7438 16.1879C63.7421 16.1467 63.7425 16.1562 63.7408 16.1149C63.7403 16.1027 63.7398 16.0905 63.7393 16.0783C63.7387 16.0661 63.7382 16.0539 63.7377 16.0416C63.7377 16.0411 63.7347 15.9686 63.7346 15.968C63.7329 15.9263 63.7333 15.9358 63.7315 15.894C63.7315 15.8935 63.7253 15.7459 63.7253 15.745C63.7217 15.6597 63.7226 15.6803 63.719 15.5946C63.7172 15.5509 63.7176 15.5626 63.7158 15.5188C63.7137 15.4686 63.7147 15.4931 63.7126 15.4428C63.7126 15.4422 63.7062 15.2906 63.7062 15.2896C63.7041 15.2387 63.7051 15.2635 63.703 15.2125C63.7024 15.1996 63.7019 15.1867 63.7013 15.1738C63.7008 15.1609 63.7003 15.148 63.6997 15.135C63.6978 15.0902 63.6983 15.1022 63.6965 15.0572C63.6943 15.0057 63.6953 15.0308 63.6932 14.9791C63.6932 14.9785 63.6866 14.8227 63.6866 14.8217C63.6822 14.7165 63.6844 14.7687 63.6799 14.663C63.6783 14.6246 63.6782 14.6217 63.6766 14.5831C63.6744 14.5302 63.6754 14.556 63.6732 14.5029C63.6732 14.5024 63.6665 14.3424 63.6665 14.3414C63.6619 14.2334 63.6642 14.287 63.6596 14.1785C63.658 14.1391 63.6578 14.1361 63.6562 14.0966C63.6539 14.0423 63.655 14.0687 63.6527 14.0143C63.6527 14.0137 63.6458 13.8496 63.6458 13.8486C63.6435 13.7936 63.6446 13.8204 63.6423 13.7653C63.6417 13.7513 63.6411 13.7374 63.6406 13.7235C63.64 13.7095 63.6394 13.6955 63.6388 13.6816C63.6371 13.6411 63.637 13.6381 63.6353 13.5975C63.6329 13.5419 63.6341 13.5689 63.6317 13.5131C63.6317 13.5126 63.6247 13.3444 63.6246 13.3433C63.6223 13.287 63.6234 13.3144 63.621 13.2579C63.6204 13.2436 63.6198 13.2294 63.6192 13.2151C63.6186 13.2008 63.618 13.1864 63.6174 13.1721C63.6157 13.1307 63.6156 13.1275 63.6138 13.086C63.6132 13.0716 63.6126 13.0572 63.612 13.0428C63.6114 13.0284 63.6108 13.014 63.6102 12.9995C63.6102 12.9989 63.603 12.8266 63.6029 12.8256C63.6001 12.7594 63.602 12.8043 63.5992 12.7381C63.5986 12.7234 63.598 12.7088 63.5974 12.6942C63.5968 12.6795 63.5962 12.6649 63.5956 12.6502C63.5945 12.6246 63.5929 12.5877 63.5919 12.562C63.5891 12.4951 63.591 12.5405 63.5882 12.4735L61.5899 12.5572C61.5913 12.591 61.5959 12.7007 61.5973 12.734C61.5984 12.7591 61.6 12.7968 61.601 12.8218C61.6016 12.8364 61.6022 12.851 61.6028 12.8656C61.6034 12.8802 61.6041 12.8948 61.6047 12.9093C61.6053 12.9239 61.6059 12.9384 61.6065 12.9529C61.6071 12.9675 61.6077 12.982 61.6083 12.9965C61.6101 13.0378 61.6102 13.0421 61.612 13.0833C61.614 13.1328 61.6171 13.2069 61.6192 13.2559C61.6233 13.3541 61.6295 13.5005 61.6335 13.5969C61.6355 13.6452 61.6385 13.7175 61.6405 13.7653C61.6412 13.7813 61.6434 13.8332 61.6441 13.849C61.6446 13.8629 61.6452 13.8768 61.6458 13.8907C61.6464 13.9046 61.647 13.9185 61.6476 13.9324C61.6489 13.965 61.6601 14.2315 61.6614 14.2623C61.6653 14.3558 61.6711 14.495 61.675 14.5867C61.6769 14.6326 61.6798 14.7013 61.6817 14.7468C61.6823 14.7619 61.6844 14.8113 61.685 14.8263C61.6856 14.8395 61.6861 14.8527 61.6867 14.8659C61.6872 14.8791 61.6878 14.8923 61.6883 14.9055C61.6896 14.9366 61.7002 15.1896 61.7015 15.2188C61.7024 15.241 61.7038 15.2742 61.7047 15.2962C61.7053 15.3091 61.7058 15.322 61.7063 15.3348C61.7069 15.3477 61.7074 15.3605 61.708 15.3734C61.7085 15.3862 61.709 15.399 61.7096 15.4118C61.7101 15.4246 61.7106 15.4373 61.7112 15.4501C61.7121 15.472 61.7135 15.5048 61.7144 15.5265C61.7193 15.6433 61.7222 15.7138 61.727 15.8287C61.7283 15.8582 61.7383 16.0978 61.7395 16.1254C61.743 16.2094 61.7482 16.3344 61.7517 16.4165C61.7563 16.5269 61.7591 16.5935 61.7636 16.7021C61.7648 16.73 61.7743 16.956 61.7754 16.9821C61.7762 17.0019 61.7775 17.0315 61.7783 17.0512C61.7783 17.0517 61.7811 17.1196 61.7812 17.12C61.7816 17.1314 61.7821 17.1429 61.7826 17.1543C61.7831 17.1657 61.7836 17.1771 61.784 17.1884C61.7849 17.2079 61.7861 17.2372 61.7869 17.2565C61.7901 17.334 61.7893 17.3147 61.7926 17.3917C61.7931 17.4045 61.7948 17.4461 61.7954 17.4588C61.7957 17.4656 61.7979 17.5187 61.7982 17.5255C61.8025 17.6296 61.816 17.95 61.82 18.0467C61.8241 18.1444 61.8266 18.2031 61.8306 18.299C61.831 18.3094 61.8315 18.3198 61.8319 18.3301C61.8323 18.3405 61.8328 18.3509 61.8332 18.3612C61.8339 18.3789 61.835 18.4055 61.8358 18.4231C61.8365 18.4412 61.8376 18.4666 61.8384 18.4846C61.8388 18.4948 61.8392 18.505 61.8396 18.5152C61.8401 18.5254 61.8405 18.5356 61.8409 18.5457C61.8417 18.5632 61.8428 18.5893 61.8435 18.6066C61.8435 18.6071 61.846 18.6666 61.846 18.667C61.8464 18.6771 61.8469 18.6871 61.8473 18.6971C61.8477 18.7072 61.8481 18.7172 61.8485 18.7272C61.8492 18.7443 61.8503 18.7699 61.851 18.7869C61.8549 18.8782 61.8572 18.9332 61.8609 19.0226C61.8648 19.1141 61.8764 19.3931 61.88 19.4773C61.8822 19.5299 61.8824 19.5354 61.8846 19.5875C61.8846 19.5881 61.8891 19.6962 61.8892 19.6963C61.8895 19.7053 61.8899 19.7143 61.8903 19.7233C61.8907 19.7323 61.891 19.7412 61.8914 19.7502C61.8918 19.7604 61.8932 19.7936 61.8937 19.8037C61.8941 19.8144 61.8954 19.8464 61.8959 19.8569C61.8961 19.8616 61.8979 19.9053 61.8981 19.9098C61.9032 20.0308 61.9105 20.2065 61.9153 20.3201C61.9161 20.3399 61.9228 20.499 61.9236 20.517C61.9251 20.5542 61.9301 20.6729 61.9316 20.7083C61.9361 20.8165 61.9427 20.9734 61.9469 21.0742C61.9483 21.1083 61.9529 21.2167 61.9542 21.2489C61.9559 21.2896 61.9561 21.2939 61.9578 21.3341C61.9583 21.3462 61.9591 21.3643 61.9596 21.3762C61.9599 21.3832 61.9602 21.3902 61.9604 21.3972C61.9607 21.4041 61.961 21.4111 61.9613 21.418C61.9629 21.4546 61.9736 21.7104 61.9748 21.7396C61.9785 21.8288 61.9839 21.9572 61.9874 22.039C61.992 22.1494 61.9947 22.2133 61.999 22.3163C62.0037 22.4301 62.0159 22.72 62.0194 22.8042C62.0233 22.8955 62.0336 23.1418 62.0362 23.2035C62.0432 23.3721 62.0564 23.6855 62.0585 23.7358C62.0612 23.8004 62.0626 23.8338 62.0641 23.8689C62.0645 23.8793 62.0653 23.8991 62.0654 23.9021C62.0656 23.9054 62.0657 23.9091 62.0658 23.9105C62.0658 23.9112 62.0659 23.9123 62.0659 23.9125C62.0659 23.9128 62.0659 23.9129 62.0659 23.9131C62.0659 23.9131 62.0659 23.9132 62.0659 23.9132C62.0659 23.9132 62.0659 23.9132 63.065 23.8713ZM63.589 12.5153C63.589 11.7886 63.8059 11.2465 64.2058 10.8158L62.7402 9.45489C61.9615 10.2935 61.589 11.3381 61.589 12.5153H63.589ZM64.1801 10.8424C64.6361 10.3865 65.1331 10.1833 65.717 10.1833V8.18334C64.5783 8.18334 63.5793 8.61483 62.7659 9.42824L64.1801 10.8424ZM65.717 10.1833C66.2966 10.1833 66.7183 10.3807 67.0658 10.7861L68.5843 9.48455C67.8438 8.62062 66.8601 8.18334 65.717 8.18334V10.1833ZM67.0902 10.8136C67.4412 11.1938 67.641 11.6888 67.641 12.3793H69.641C69.641 11.2566 69.2969 10.2555 68.5598 9.45706L67.0902 10.8136ZM67.641 12.3793C67.641 13.2785 67.6182 13.9179 67.578 14.3198L69.5681 14.5188C69.6185 14.0141 69.641 13.2935 69.641 12.3793H67.641ZM69.3818 15.0075C71.7952 11.6891 74.4494 10.1833 77.345 10.1833V8.18334C73.622 8.18334 70.4282 10.1683 67.7643 13.8312L69.3818 15.0075ZM77.345 10.1833C79.4753 10.1833 81.1617 10.887 82.4877 12.2719C83.8418 13.6862 84.8883 15.884 85.5469 18.9795L87.5031 18.5632C86.8017 15.2667 85.6382 12.6705 83.9323 10.8888C82.1984 9.07773 79.9748 8.18334 77.345 8.18334V10.1833ZM85.5486 18.9871L88.1326 30.6831L90.0855 30.2516L87.5015 18.5556L85.5486 18.9871ZM88.1414 30.7198C88.4497 31.9013 89.0522 33.1369 89.909 34.422L91.5731 33.3126C90.7978 32.1498 90.3124 31.1187 90.0767 30.2149L88.1414 30.7198ZM89.9336 34.4574C90.7325 35.5506 91.033 36.4095 91.033 37.0633H93.033C93.033 35.8132 92.4722 34.5414 91.5484 33.2773L89.9336 34.4574ZM91.033 37.0633C91.033 38.0975 90.7839 38.6877 90.4622 39.0222C90.1475 39.3495 89.602 39.5993 88.633 39.5993V41.5993C89.9307 41.5993 91.0852 41.2599 91.9039 40.4085C92.7155 39.5643 93.033 38.3866 93.033 37.0633H91.033ZM88.633 39.5993C87.8066 39.5993 87.152 39.2916 86.6002 38.621C86.0144 37.9089 85.5204 36.7519 85.1955 35.0408L83.2306 35.4139C83.5857 37.2841 84.1684 38.8131 85.0558 39.8917C85.9774 41.0118 87.1928 41.5993 88.633 41.5993V39.5993ZM85.1969 35.0485L82.6129 20.8365L80.6452 21.1942L83.2292 35.4062L85.1969 35.0485ZM82.6115 20.8287C82.1579 18.4413 81.2936 16.5231 79.9286 15.1979C78.5431 13.8527 76.7416 13.2153 74.625 13.2153V15.2153C76.3165 15.2153 77.5863 15.7113 78.5355 16.6328C79.5051 17.5743 80.2389 19.056 80.6466 21.202L82.6115 20.8287ZM74.625 13.2153C72.4253 13.2153 70.605 13.9713 69.2986 15.5498L70.8394 16.8249C71.7091 15.7741 72.9261 15.2153 74.625 15.2153V13.2153ZM69.2986 15.5498C68.0777 17.0251 67.3881 18.7396 67.2361 20.6646L69.2299 20.822C69.35 19.3018 69.8844 17.9789 70.8394 16.8249L69.2986 15.5498ZM104.839 13.6713L104.905 12.6736L103.839 12.6025V13.6713H104.839ZM104.567 20.4033L103.568 20.3569L103.568 20.3569L104.567 20.4033ZM105.519 33.7993L104.678 34.3401L104.689 34.3577L104.701 34.3748L105.519 33.7993ZM105.791 39.6473L106.473 40.3784L106.486 40.3666L106.498 40.3545L105.791 39.6473ZM100.079 35.2273H101.079V35.2175L101.079 35.2076L100.079 35.2273ZM99.8068 21.4233H98.8068V21.4332L98.807 21.443L99.8068 21.4233ZM99.6028 13.8753L100.601 13.8142L100.543 12.8753H99.6028V13.8753ZM96.4068 13.3313L95.6997 14.0385L95.7205 14.0592L95.7425 14.0788L96.4068 13.3313ZM96.4068 10.1353L97.0712 10.8828L97.0931 10.8632L97.1139 10.8424L96.4068 10.1353ZM99.3988 9.52334V10.5233H100.438L100.398 9.48491L99.3988 9.52334ZM100.147 1.15935L99.3749 0.523624L99.3707 0.528752L100.147 1.15935ZM104.499 1.09134L103.699 1.69134L103.708 1.70384L103.718 1.71604L104.499 1.09134ZM105.111 9.72734L104.113 9.6561L104.032 10.8009L105.177 10.7252L105.111 9.72734ZM113.339 9.18334V8.18334H113.306L113.273 8.18552L113.339 9.18334ZM113.339 13.2153C113.342 13.2153 113.302 13.2143 113.183 13.2082C113.077 13.2027 112.929 13.1944 112.739 13.1831C112.359 13.1606 111.816 13.1267 111.108 13.0814C109.692 12.9908 107.625 12.8549 104.905 12.6736L104.772 14.6691C110.175 15.0293 113.068 15.2153 113.339 15.2153V13.2153ZM103.839 13.6713C103.839 14.2308 103.75 16.4424 103.568 20.3569L105.566 20.4498C105.746 16.5669 105.839 14.2906 105.839 13.6713H103.839ZM103.568 20.3569C103.386 24.2585 103.295 27.179 103.295 29.1073H105.295C105.295 27.2277 105.385 24.3455 105.566 20.4498L103.568 20.3569ZM103.295 29.1073C103.295 31.1132 103.736 32.8757 104.678 34.3401L106.36 33.2586C105.669 32.1843 105.295 30.8188 105.295 29.1073H103.295ZM104.701 34.3748C105.5 35.5099 105.811 36.4197 105.811 37.1313H107.811C107.811 35.8484 107.261 34.5367 106.337 33.2239L104.701 34.3748ZM105.811 37.1313C105.811 37.8744 105.569 38.4554 105.084 38.9402L106.498 40.3545C107.373 39.4793 107.811 38.3829 107.811 37.1313H105.811ZM105.108 38.9163C104.597 39.3932 104.066 39.5993 103.479 39.5993V41.5993C104.615 41.5993 105.624 41.1708 106.473 40.3784L105.108 38.9163ZM103.479 39.5993C102.66 39.5993 102.142 39.3038 101.774 38.7215C101.356 38.062 101.079 36.9448 101.079 35.2273H99.0788C99.0788 37.0912 99.3679 38.66 100.084 39.7911C100.849 40.9995 102.031 41.5993 103.479 41.5993V39.5993ZM101.079 35.2076L100.807 21.4036L98.807 21.443L99.079 35.247L101.079 35.2076ZM100.807 21.4233C100.807 18.5973 100.738 16.0604 100.601 13.8142L98.6047 13.9365C98.7392 16.133 98.8068 18.628 98.8068 21.4233H100.807ZM99.6028 12.8753H97.9708V14.8753H99.6028V12.8753ZM97.9708 12.8753C97.5388 12.8753 97.2668 12.7578 97.0712 12.5839L95.7425 14.0788C96.3628 14.6302 97.1335 14.8753 97.9708 14.8753V12.8753ZM97.1139 12.6242C96.9267 12.437 96.7948 12.1651 96.7948 11.6993H94.7948C94.7948 12.5936 95.071 13.4097 95.6997 14.0385L97.1139 12.6242ZM96.7948 11.6993C96.7948 11.2293 96.9273 11.0106 97.0712 10.8828L95.7424 9.38793C95.0703 9.98541 94.7948 10.8093 94.7948 11.6993H96.7948ZM97.1139 10.8424C97.3147 10.6416 97.5722 10.5233 97.9708 10.5233V8.52334C97.1001 8.52334 96.3149 8.81306 95.6997 9.42824L97.1139 10.8424ZM97.9708 10.5233H99.3988V8.52334H97.9708V10.5233ZM100.398 9.48491C100.308 7.13098 100.263 5.35569 100.263 4.15134H98.2628C98.2628 5.39499 98.3088 7.20104 98.3996 9.56178L100.398 9.48491ZM100.263 4.15134C100.263 3.02971 100.523 2.28237 100.923 1.78994L99.3707 0.528752C98.5921 1.48698 98.2628 2.73431 98.2628 4.15134H100.263ZM100.919 1.79505C101.397 1.21404 101.878 1.00334 102.391 1.00334V-0.996656C101.181 -0.996656 100.166 -0.436685 99.3749 0.523638L100.919 1.79505ZM102.391 1.00334C102.919 1.00334 103.332 1.20233 103.699 1.69134L105.299 0.491341C104.578 -0.470313 103.586 -0.996656 102.391 -0.996656V1.00334ZM103.718 1.71604C104.043 2.12286 104.315 2.96726 104.315 4.49134H106.315C106.315 2.8421 106.042 1.41983 105.28 0.466648L103.718 1.71604ZM104.315 4.49134C104.315 6.05005 104.248 7.77123 104.113 9.6561L106.108 9.79859C106.246 7.87546 106.315 6.10597 106.315 4.49134H104.315ZM105.177 10.7252L113.405 10.1812L113.273 8.18552L105.045 8.72952L105.177 10.7252ZM113.339 10.1833C114.081 10.1833 114.453 10.3604 114.64 10.5378C114.817 10.7058 114.991 11.0287 114.991 11.6993H116.991C116.991 10.6927 116.723 9.75751 116.016 9.08688C115.319 8.42561 114.364 8.18334 113.339 8.18334V10.1833ZM114.991 11.6993C114.991 12.37 114.817 12.6928 114.64 12.8609C114.453 13.0383 114.081 13.2153 113.339 13.2153V15.2153C114.364 15.2153 115.319 14.9731 116.016 14.3118C116.723 13.6412 116.991 12.706 116.991 11.6993H114.991ZM143.321 31.0793L142.38 31.4168L142.384 31.4294L142.389 31.4418L143.321 31.0793ZM145.293 34.4113L144.477 34.9901L144.488 35.0051L144.499 35.0198L145.293 34.4113ZM146.177 39.8513L146.917 40.524L146.931 40.5081L146.945 40.4915L146.177 39.8513ZM139.377 34.8193L138.437 35.1611L138.441 35.1717L139.377 34.8193ZM138.833 33.3233L139.773 32.9816L138.957 30.7386L137.93 32.8931L138.833 33.3233ZM122.649 38.4233L121.942 39.1305L121.953 39.1412L121.964 39.1515L122.649 38.4233ZM133.189 19.9273L133.237 20.9262L134.867 20.8486L134.057 19.4312L133.189 19.9273ZM130.129 16.3913L129.529 17.1913L129.548 17.2052L129.567 17.2183L130.129 16.3913ZM127.137 14.9633L127.285 13.9744L127.285 13.9744L127.137 14.9633ZM124.553 14.7593L124.494 15.7576L124.524 15.7593H124.553V14.7593ZM123.125 10.0673L122.518 9.27299L122.506 9.28194L122.494 9.29123L123.125 10.0673ZM134.549 13.6033L135.267 12.9074L135.267 12.9074L134.549 13.6033ZM142.029 27.4753L141.082 27.7957L141.085 27.8043L141.088 27.8128L142.029 27.4753ZM127.069 25.1633L126.431 24.3929L126.425 24.3985L126.418 24.4041L127.069 25.1633ZM126.865 33.7313L126.144 34.4245L126.158 34.4386L126.172 34.4522L126.865 33.7313ZM135.297 33.7313L135.99 34.4522L135.997 34.4454L136.004 34.4385L135.297 33.7313ZM136.453 26.4553L135.527 26.834L135.531 26.8416L135.534 26.8493L136.453 26.4553ZM135.705 24.6193L136.633 24.248L136.511 23.941L136.229 23.7677L135.705 24.6193ZM142.389 31.4418C142.753 32.3767 143.469 33.5691 144.477 34.9901L146.108 33.8326C145.122 32.4429 144.524 31.414 144.253 30.7169L142.389 31.4418ZM144.499 35.0198C145.52 36.3504 145.857 37.2332 145.857 37.7433H147.857C147.857 36.5308 147.152 35.1922 146.087 33.8029L144.499 35.0198ZM145.857 37.7433C145.857 38.4233 145.682 38.8835 145.409 39.2112L146.945 40.4915C147.579 39.7312 147.857 38.7861 147.857 37.7433H145.857ZM145.437 39.1787C145.201 39.438 144.875 39.5993 144.341 39.5993V41.5993C145.349 41.5993 146.246 41.262 146.917 40.524L145.437 39.1787ZM144.341 39.5993C143.799 39.5993 143.175 39.33 142.465 38.5028C141.746 37.666 141.019 36.3436 140.313 34.467L138.441 35.1717C139.185 37.1484 140.011 38.7161 140.947 39.8059C141.892 40.9053 143.024 41.5993 144.341 41.5993V39.5993ZM140.317 34.4776L139.773 32.9816L137.893 33.6651L138.437 35.1611L140.317 34.4776ZM137.93 32.8931C136.829 35.2037 135.484 36.8706 133.925 37.9609C132.375 39.0451 130.556 39.5993 128.429 39.5993V41.5993C130.926 41.5993 133.153 40.9409 135.071 39.5998C136.98 38.2648 138.525 36.2937 139.736 33.7536L137.93 32.8931ZM128.429 39.5993C126.346 39.5993 124.672 38.9544 123.334 37.6951L121.964 39.1515C123.708 40.7936 125.888 41.5993 128.429 41.5993V39.5993ZM123.356 37.7162C122.058 36.4179 121.405 34.8182 121.405 32.8473H119.405C119.405 35.3192 120.248 37.4367 121.942 39.1305L123.356 37.7162ZM121.405 32.8473C121.405 29.6564 122.487 26.9332 124.668 24.6264L123.214 23.2523C120.681 25.9322 119.405 29.1477 119.405 32.8473H121.405ZM124.668 24.6264C126.827 22.3424 129.655 21.0967 133.237 20.9262L133.141 18.9285C129.106 19.1206 125.77 20.5497 123.214 23.2523L124.668 24.6264ZM134.057 19.4312C133.099 17.7545 131.985 16.4442 130.691 15.5644L129.567 17.2183C130.539 17.8798 131.466 18.9269 132.321 20.4235L134.057 19.4312ZM130.729 15.5913C129.568 14.7204 128.416 14.144 127.285 13.9744L126.989 15.9523C127.671 16.0547 128.514 16.4303 129.529 17.1913L130.729 15.5913ZM127.285 13.9744C126.335 13.8319 125.424 13.7593 124.553 13.7593V15.7593C125.314 15.7593 126.125 15.8228 126.989 15.9523L127.285 13.9744ZM124.612 13.7611C123.956 13.7225 123.543 13.5732 123.29 13.3961L122.144 15.0346C122.797 15.4921 123.609 15.7055 124.494 15.7576L124.612 13.7611ZM123.29 13.3961C123.24 13.3607 123.037 13.1702 123.037 12.3793H121.037C121.037 13.4018 121.287 14.4353 122.144 15.0346L123.29 13.3961ZM123.037 12.3793C123.037 11.7219 123.269 11.2388 123.756 10.8435L122.494 9.29123C121.53 10.0745 121.037 11.1327 121.037 12.3793H123.037ZM123.732 10.8617C124.315 10.416 125.004 10.1833 125.845 10.1833V8.18334C124.6 8.18334 123.476 8.54004 122.518 9.27299L123.732 10.8617ZM125.845 10.1833C128.429 10.1833 131.088 11.469 133.831 14.2993L135.267 12.9074C132.298 9.84434 129.154 8.18334 125.845 8.18334V10.1833ZM133.831 14.2993C136.539 17.0932 138.972 21.5577 141.082 27.7957L142.976 27.155C140.824 20.7903 138.271 16.0069 135.267 12.9074L133.831 14.2993ZM141.088 27.8128L142.38 31.4168L144.262 30.7419L142.97 27.1379L141.088 27.8128ZM131.489 22.5313C129.613 22.5313 127.917 23.1639 126.431 24.3929L127.707 25.9337C128.851 24.9868 130.101 24.5313 131.489 24.5313V22.5313ZM126.418 24.4041C124.92 25.6886 124.165 27.3749 124.165 29.3793H126.165C126.165 27.9384 126.68 26.8141 127.72 25.9226L126.418 24.4041ZM124.165 29.3793C124.165 31.3452 124.821 33.0488 126.144 34.4245L127.586 33.0382C126.642 32.0566 126.165 30.8589 126.165 29.3793H124.165ZM126.172 34.4522C127.536 35.7642 129.19 36.4313 131.081 36.4313V34.4313C129.708 34.4313 128.551 33.9651 127.558 33.0105L126.172 34.4522ZM131.081 36.4313C132.972 36.4313 134.626 35.7642 135.99 34.4522L134.604 33.0105C133.611 33.9651 132.454 34.4313 131.081 34.4313V36.4313ZM136.004 34.4385C137.36 33.0828 138.065 31.4498 138.065 29.5833H136.065C136.065 30.8902 135.592 32.0226 134.59 33.0242L136.004 34.4385ZM138.065 29.5833C138.065 28.3274 137.838 27.1492 137.372 26.0614L135.534 26.8493C135.884 27.6655 136.065 28.5726 136.065 29.5833H138.065ZM137.379 26.0767C136.97 25.0778 136.722 24.4701 136.633 24.248L134.776 24.9907C134.869 25.2219 135.12 25.8382 135.527 26.834L137.379 26.0767ZM136.229 23.7677C134.866 22.9292 133.272 22.5313 131.489 22.5313V24.5313C132.969 24.5313 134.186 24.8589 135.181 25.471L136.229 23.7677ZM157.532 17.6153L156.793 16.9411L156.793 16.9419L157.532 17.6153ZM157.668 32.2353L156.953 32.9343L156.961 32.9425L157.668 32.2353ZM171.812 32.4393L171.153 31.6868L171.146 31.6934L171.138 31.7001L171.812 32.4393ZM174.396 31.8953L175.103 31.1882L175.103 31.1882L174.396 31.8953ZM170.928 37.6753L170.326 36.877L170.319 36.8822L170.928 37.6753ZM153.792 36.6553L153.047 37.3229L153.054 37.3299L153.792 36.6553ZM155.9 14.2833L156.57 15.0253L156.57 15.0253L155.9 14.2833ZM172.968 10.2033L172.468 11.0695L172.488 11.0808L172.508 11.0911L172.968 10.2033ZM173.852 15.1673L173.145 14.4602L173.132 14.4733L173.119 14.4869L173.852 15.1673ZM169.024 15.3033L168.663 16.236L168.673 16.2397L169.024 15.3033ZM164.876 13.4873C161.622 13.4873 158.899 14.6347 156.793 16.9411L158.27 18.2896C159.973 16.4253 162.146 15.4873 164.876 15.4873V13.4873ZM156.793 16.9419C154.76 19.173 153.744 21.8638 153.744 24.9593H155.744C155.744 22.3429 156.587 20.1377 158.271 18.2888L156.793 16.9419ZM153.744 24.9593C153.744 28.0696 154.816 30.7478 156.953 32.9343L158.383 31.5364C156.621 29.7335 155.744 27.5611 155.744 24.9593H153.744ZM156.961 32.9425C159.146 35.1273 161.826 36.2273 164.944 36.2273V34.2273C162.349 34.2273 160.18 33.3328 158.375 31.5282L156.961 32.9425ZM164.944 36.2273C167.754 36.2273 170.279 35.1891 172.485 33.1785L171.138 31.7001C169.265 33.4069 167.211 34.2273 164.944 34.2273V36.2273ZM172.47 33.1919C172.808 32.897 173.072 32.7036 173.268 32.5891C173.485 32.4624 173.526 32.4873 173.444 32.4873V30.4873C172.999 30.4873 172.587 30.671 172.26 30.8616C171.912 31.0644 171.542 31.3471 171.153 31.6868L172.47 33.1919ZM173.444 32.4873C173.524 32.4873 173.592 32.5054 173.689 32.6025L175.103 31.1882C174.656 30.7413 174.089 30.4873 173.444 30.4873V32.4873ZM173.689 32.6025C173.756 32.6701 173.784 32.717 173.794 32.7394C173.803 32.7584 173.804 32.7687 173.804 32.7793H175.804C175.804 32.1423 175.52 31.6053 175.103 31.1882L173.689 32.6025ZM173.804 32.7793C173.804 33.1133 173.633 33.6328 173.051 34.3686C172.478 35.0918 171.583 35.9286 170.326 36.877L171.53 38.4737C172.857 37.4727 173.899 36.5189 174.619 35.61C175.328 34.7138 175.804 33.7601 175.804 32.7793H173.804ZM170.319 36.8822C167.959 38.6946 165.272 39.5993 162.224 39.5993V41.5993C165.703 41.5993 168.82 40.5548 171.537 38.4685L170.319 36.8822ZM162.224 39.5993C159.318 39.5993 156.766 38.4274 154.53 35.9808L153.054 37.3299C155.623 40.142 158.693 41.5993 162.224 41.5993V39.5993ZM154.536 35.9878C152.361 33.5615 151.256 30.5433 151.256 26.8633H149.256C149.256 30.9807 150.508 34.4905 153.047 37.3229L154.536 35.9878ZM151.256 26.8633C151.256 22.1649 153.013 18.2394 156.57 15.0253L155.229 13.5414C151.261 17.1273 149.256 21.5885 149.256 26.8633H151.256ZM156.57 15.0253C160.173 11.7702 164.088 10.1833 168.344 10.1833V8.18334C163.533 8.18334 159.152 9.99652 155.229 13.5414L156.57 15.0253ZM168.344 10.1833C170.139 10.1833 171.49 10.5053 172.468 11.0695L173.468 9.33716C172.088 8.54134 170.357 8.18334 168.344 8.18334V10.1833ZM172.508 11.0911C173.525 11.6184 173.804 12.1723 173.804 12.7193H175.804C175.804 11.1811 174.859 10.0576 173.428 9.31559L172.508 11.0911ZM173.804 12.7193C173.804 13.4838 173.57 14.0348 173.145 14.4602L174.559 15.8744C175.403 15.0306 175.804 13.9496 175.804 12.7193H173.804ZM173.119 14.4869C172.629 15.0142 172.286 15.1193 172.084 15.1193V17.1193C173.06 17.1193 173.896 16.5898 174.585 15.8478L173.119 14.4869ZM172.084 15.1193C171.7 15.1193 170.839 14.9162 169.375 14.367L168.673 16.2397C170.11 16.7785 171.289 17.1193 172.084 17.1193V15.1193ZM169.385 14.3708C167.877 13.787 166.372 13.4873 164.876 13.4873V15.4873C166.1 15.4873 167.36 15.7317 168.663 16.2359L169.385 14.3708ZM185.921 13.6713L185.987 12.6736L184.921 12.6025V13.6713H185.921ZM185.649 20.4033L184.65 20.3569L184.65 20.3569L185.649 20.4033ZM186.601 33.7993L185.76 34.3401L185.771 34.3577L185.783 34.3748L186.601 33.7993ZM186.873 39.6473L187.555 40.3784L187.568 40.3666L187.58 40.3545L186.873 39.6473ZM181.161 35.2273H182.161V35.2175L182.161 35.2076L181.161 35.2273ZM180.889 21.4233H179.889V21.4332L179.889 21.443L180.889 21.4233ZM180.685 13.8753L181.683 13.8142L181.625 12.8753H180.685V13.8753ZM177.489 13.3313L176.782 14.0385L176.803 14.0592L176.824 14.0788L177.489 13.3313ZM177.489 10.1353L178.153 10.8828L178.175 10.8632L178.196 10.8424L177.489 10.1353ZM180.481 9.52334V10.5233H181.52L181.48 9.48491L180.481 9.52334ZM181.229 1.15935L180.457 0.523624L180.453 0.528752L181.229 1.15935ZM185.581 1.09134L184.781 1.69134L184.79 1.70384L184.8 1.71604L185.581 1.09134ZM186.193 9.72734L185.195 9.6561L185.114 10.8009L186.259 10.7252L186.193 9.72734ZM194.421 9.18334V8.18334H194.388L194.355 8.18552L194.421 9.18334ZM194.421 13.2153C194.424 13.2153 194.384 13.2143 194.265 13.2082C194.159 13.2027 194.012 13.1944 193.821 13.1831C193.441 13.1606 192.898 13.1267 192.19 13.0814C190.774 12.9908 188.707 12.8549 185.987 12.6736L185.854 14.6691C191.257 15.0293 194.15 15.2153 194.421 15.2153V13.2153ZM184.921 13.6713C184.921 14.2308 184.832 16.4424 184.65 20.3569L186.648 20.4498C186.828 16.5669 186.921 14.2906 186.921 13.6713H184.921ZM184.65 20.3569C184.468 24.2585 184.377 27.179 184.377 29.1073H186.377C186.377 27.2277 186.467 24.3455 186.648 20.4498L184.65 20.3569ZM184.377 29.1073C184.377 31.1132 184.818 32.8757 185.76 34.3401L187.442 33.2586C186.751 32.1843 186.377 30.8188 186.377 29.1073H184.377ZM185.783 34.3748C186.582 35.5099 186.893 36.4197 186.893 37.1313H188.893C188.893 35.8484 188.343 34.5367 187.419 33.2239L185.783 34.3748ZM186.893 37.1313C186.893 37.8744 186.651 38.4554 186.166 38.9402L187.58 40.3545C188.455 39.4793 188.893 38.3829 188.893 37.1313H186.893ZM186.191 38.9163C185.68 39.3932 185.148 39.5993 184.561 39.5993V41.5993C185.697 41.5993 186.706 41.1708 187.555 40.3784L186.191 38.9163ZM184.561 39.5993C183.742 39.5993 183.224 39.3038 182.856 38.7215C182.438 38.062 182.161 36.9448 182.161 35.2273H180.161C180.161 37.0912 180.45 38.66 181.166 39.7911C181.931 40.9995 183.113 41.5993 184.561 41.5993V39.5993ZM182.161 35.2076L181.889 21.4036L179.889 21.443L180.161 35.247L182.161 35.2076ZM181.889 21.4233C181.889 18.5973 181.82 16.0604 181.683 13.8142L179.687 13.9365C179.821 16.133 179.889 18.628 179.889 21.4233H181.889ZM180.685 12.8753H179.053V14.8753H180.685V12.8753ZM179.053 12.8753C178.621 12.8753 178.349 12.7578 178.153 12.5839L176.824 14.0788C177.445 14.6302 178.216 14.8753 179.053 14.8753V12.8753ZM178.196 12.6242C178.009 12.437 177.877 12.1651 177.877 11.6993H175.877C175.877 12.5936 176.153 13.4097 176.782 14.0385L178.196 12.6242ZM177.877 11.6993C177.877 11.2293 178.009 11.0106 178.153 10.8828L176.824 9.38793C176.152 9.98541 175.877 10.8093 175.877 11.6993H177.877ZM178.196 10.8424C178.397 10.6416 178.654 10.5233 179.053 10.5233V8.52334C178.182 8.52334 177.397 8.81306 176.782 9.42824L178.196 10.8424ZM179.053 10.5233H180.481V8.52334H179.053V10.5233ZM181.48 9.48491C181.39 7.13098 181.345 5.35569 181.345 4.15134H179.345C179.345 5.39499 179.391 7.20104 179.482 9.56178L181.48 9.48491ZM181.345 4.15134C181.345 3.02971 181.605 2.28237 182.005 1.78994L180.453 0.528752C179.674 1.48698 179.345 2.73431 179.345 4.15134H181.345ZM182.001 1.79505C182.479 1.21404 182.96 1.00334 183.473 1.00334V-0.996656C182.263 -0.996656 181.248 -0.436685 180.457 0.523638L182.001 1.79505ZM183.473 1.00334C184.001 1.00334 184.414 1.20233 184.781 1.69134L186.381 0.491341C185.66 -0.470313 184.668 -0.996656 183.473 -0.996656V1.00334ZM184.8 1.71604C185.125 2.12286 185.397 2.96726 185.397 4.49134H187.397C187.397 2.8421 187.124 1.41983 186.362 0.466648L184.8 1.71604ZM185.397 4.49134C185.397 6.05005 185.33 7.77123 185.195 9.6561L187.19 9.79859C187.328 7.87546 187.397 6.10597 187.397 4.49134H185.397ZM186.259 10.7252L194.487 10.1812L194.355 8.18552L186.127 8.72952L186.259 10.7252ZM194.421 10.1833C195.163 10.1833 195.535 10.3604 195.722 10.5378C195.899 10.7058 196.073 11.0287 196.073 11.6993H198.073C198.073 10.6927 197.805 9.75751 197.098 9.08688C196.401 8.42561 195.446 8.18334 194.421 8.18334V10.1833ZM196.073 11.6993C196.073 12.37 195.899 12.6928 195.722 12.8609C195.535 13.0383 195.163 13.2153 194.421 13.2153V15.2153C195.446 15.2153 196.401 14.9731 197.098 14.3118C197.805 13.6412 198.073 12.706 198.073 11.6993H196.073Z" fill="black"/>
</svg>
