<svg width="80" height="80" viewBox="0 0 80 80" fill="none" xmlns="http://www.w3.org/2000/svg">
<path d="M40.0001 66.9213C37.8656 66.9213 36.1292 68.6579 36.1292 70.7922C36.1292 72.9266 37.8656 74.6632 40.0001 74.6632C42.1345 74.6632 43.8711 72.9266 43.8711 70.7922C43.8711 68.6579 42.1345 66.9213 40.0001 66.9213ZM40.0001 72.0826C39.2885 72.0826 38.7098 71.5036 38.7098 70.7922C38.7098 70.0808 39.2885 69.5019 40.0001 69.5019C40.7117 69.5019 41.2904 70.0808 41.2904 70.7922C41.2904 71.5036 40.7117 72.0826 40.0001 72.0826Z" fill="black"/>
<path d="M34.5567 10.4981H45.4432C46.156 10.4981 46.7335 9.92041 46.7335 9.2078C46.7335 8.4952 46.156 7.91748 45.4432 7.91748H34.5567C33.8441 7.91748 33.2664 8.4952 33.2664 9.2078C33.2664 9.92041 33.8441 10.4981 34.5567 10.4981Z" fill="black"/>
<path d="M55.8359 0H24.1644C19.572 0 15.8359 3.73609 15.8359 8.32843V71.6716C15.8359 76.2639 19.572 80 24.1644 80H55.8359C60.4281 80 64.1642 76.2639 64.1642 71.6716V8.32843C64.1642 3.73609 60.4283 0 55.8359 0ZM18.4166 18.4157H61.5837V61.5843H18.4166V18.4157ZM24.1644 2.58065H55.8359C59.0051 2.58065 61.5836 5.15905 61.5836 8.32843V15.835H18.4166V8.32843C18.4166 5.15905 20.995 2.58065 24.1644 2.58065ZM55.8359 77.4194H24.1644C20.995 77.4194 18.4166 74.8409 18.4166 71.6716V64.165H61.5837V71.6716C61.5835 74.8409 59.0051 77.4194 55.8359 77.4194Z" fill="black"/>
</svg>
