<?xml version="1.0" encoding="UTF-8"?>
<svg id="_레이어_2" data-name="레이어 2" xmlns="http://www.w3.org/2000/svg" viewBox="0 0 29 31">
  <defs>
    <style>
      .cls-1 {
        fill: #00dfa2;
      }

      .cls-2 {
        fill: #fff;
      }

      .cls-3 {
        fill: none;
        stroke: #000;
        stroke-miterlimit: 10;
      }
    </style>
  </defs>
  <g id="_레이어_1-2" data-name="레이어 1">
    <g>
      <path d="M15.5,1c8.28,0,13.5,7.72,13.5,16s-5.22,14-13.5,14S1,25.28,1,17,7.22,1,15.5,1Z"/>
      <path class="cls-1" d="M13.5,0c8.28,0,13.5,6.72,13.5,15s-5.22,14-13.5,14S0,23.28,0,15,5.22,0,13.5,0Z"/>
      <path class="cls-1" d="M13.5,0c8.28,0,13.5,6.72,13.5,15s-5.22,14-13.5,14S0,23.28,0,15,5.22,0,13.5,0Z"/>
      <g>
        <path class="cls-2" d="M8.3,11.98c-.72,.84-.63,1.97,.2,2.52s1.95,.33,2.5-.5,1-.6,1,.5v6c0,1.1,.67,2,1.5,2s1.5-.9,1.5-2v-6c0-1.1,.45-1.33,1-.5s1.67,1.05,2.5,.5,.91-1.68,.2-2.52l-3.4-3.96c-.72-.84-1.53-1.52-1.8-1.52s-1.09,.68-1.8,1.52l-3.4,3.96Z"/>
        <path class="cls-3" d="M8.3,11.98c-.72,.84-.63,1.97,.2,2.52s1.95,.33,2.5-.5,1-.6,1,.5v6c0,1.1,.67,2,1.5,2s1.5-.9,1.5-2v-6c0-1.1,.45-1.33,1-.5s1.67,1.05,2.5,.5,.91-1.68,.2-2.52l-3.4-3.96c-.72-.84-1.53-1.52-1.8-1.52s-1.09,.68-1.8,1.52l-3.4,3.96Z"/>
      </g>
    </g>
  </g>
</svg>